<svg width="39" height="39" viewBox="0 0 39 39" fill="none" xmlns="http://www.w3.org/2000/svg">
<path d="M33.1587 5.66719C29.5112 2.01094 24.6536 0 19.4913 0C8.83594 0 0.165402 8.67054 0.165402 19.3259C0.165402 22.7297 1.05335 26.0551 2.74219 28.9888L0 39L10.2462 36.31C13.0667 37.8509 16.2442 38.6605 19.4826 38.6605H19.4913C30.1379 38.6605 39 29.99 39 19.3346C39 14.1723 36.8063 9.32344 33.1587 5.66719ZM19.4913 35.4047C16.6011 35.4047 13.7719 34.6299 11.3083 33.1674L10.725 32.8192L4.64866 34.4123L6.26786 28.4839L5.88482 27.8746C4.27433 25.3152 3.42991 22.3641 3.42991 19.3259C3.42991 10.4725 10.6379 3.26451 19.5 3.26451C23.7917 3.26451 27.8223 4.93594 30.8518 7.97411C33.8813 11.0123 35.7442 15.0429 35.7355 19.3346C35.7355 28.1967 28.3446 35.4047 19.4913 35.4047ZM28.3011 23.3739C27.8223 23.1301 25.4458 21.9636 25.0018 21.8069C24.5578 21.6415 24.2357 21.5632 23.9136 22.0507C23.5915 22.5382 22.6688 23.6176 22.3815 23.9484C22.1029 24.2705 21.8156 24.3141 21.3368 24.0703C18.4989 22.6513 16.6359 21.5371 14.7643 18.3248C14.2681 17.4717 15.2605 17.5326 16.1833 15.6871C16.34 15.365 16.2616 15.0864 16.1397 14.8426C16.0179 14.5989 15.0516 12.2223 14.6511 11.256C14.2594 10.3158 13.8589 10.4464 13.5629 10.429C13.2844 10.4116 12.9623 10.4116 12.6402 10.4116C12.3181 10.4116 11.7958 10.5335 11.3518 11.0123C10.9078 11.4998 9.66295 12.6663 9.66295 15.0429C9.66295 17.4194 11.3953 19.7176 11.6304 20.0397C11.8741 20.3618 15.0342 25.2368 19.883 27.3348C22.9473 28.658 24.1487 28.7712 25.6808 28.5449C26.6123 28.4056 28.5362 27.3783 28.9366 26.2467C29.3371 25.115 29.3371 24.1487 29.2152 23.9484C29.102 23.7308 28.7799 23.6089 28.3011 23.3739Z" fill="white"/>
</svg>
